<svg xmlns="http://www.w3.org/2000/svg" xmlns:xlink="http://www.w3.org/1999/xlink" viewBox="0 0 185.67 197.53"><defs><style>.cls-1{fill:url(#radial-gradient);}.cls-2{fill:#96cd00;}.cls-3{fill:#7c1f5b;}.cls-4{fill:#ff993d;}.cls-5{mask:url(#mask);}.cls-6{opacity:0.3;}</style><radialGradient id="radial-gradient" cx="120.62" cy="233.48" r="131.53" gradientTransform="translate(8.35 134.62) scale(0.7 0.18)" gradientUnits="userSpaceOnUse"><stop offset="0" stop-color="#fff"/><stop offset="1" stop-color="#231f20" stop-opacity="0"/></radialGradient><mask id="mask" x="0" y="153.5" width="185.67" height="44.03" maskUnits="userSpaceOnUse"><path class="cls-1" d="M185.67,175.51c0,12.16-41.57,22-92.84,22S0,187.67,0,175.51s41.56-22,92.83-22S185.67,163.36,185.67,175.51Z"/></mask></defs><g id="Layer_2" data-name="Layer 2"><g id="elements"><path class="cls-2" d="M135.36,41.51a27.12,27.12,0,0,0-12.67,3.12,26,26,0,0,1,0,46.3,27.12,27.12,0,0,0,12.67,3.12,26.27,26.27,0,1,0,0-52.54Z"/><path class="cls-2" d="M55.34,41.51A27,27,0,0,1,68,44.63a26,26,0,0,0,0,46.3,27,27,0,0,1-12.66,3.12,26.27,26.27,0,1,1,0-52.54Z"/><path class="cls-3" d="M136.33,107.22a27.49,27.49,0,0,1-23.72-13.45,26.33,26.33,0,0,0-3.7,13.45c0,14.86,12.28,26.9,27.42,26.9s27.42-12,27.42-26.9a26.33,26.33,0,0,0-3.7-13.45A27.49,27.49,0,0,1,136.33,107.22Z"/><path class="cls-3" d="M54,27.09A26.23,26.23,0,0,0,31.34,39.93a25.19,25.19,0,0,1-3.53-12.84,26.17,26.17,0,0,1,52.34,0,25.19,25.19,0,0,1-3.53,12.84A26.22,26.22,0,0,0,54,27.09Z"/><path class="cls-4" d="M95.33,27.63A28.23,28.23,0,0,1,119.7,41.44a27,27,0,0,0,3.8-13.81C123.5,12.37,110.89,0,95.33,0A28.39,28.39,0,0,0,81.25,3.73,27.5,27.5,0,0,1,95.33,27.63Z"/><path class="cls-4" d="M96.31,106.87a26.92,26.92,0,0,0,13.8,23.36,27.7,27.7,0,0,1-13.77,3.66c-15.21,0-27.56-12.07-27.57-27a26.38,26.38,0,0,1,3.7-13.52A27.61,27.61,0,0,0,96.31,106.87Z"/><g class="cls-5"><path class="cls-6" d="M185.67,175.51c0,12.16-41.57,22-92.84,22S0,187.67,0,175.51s41.56-22,92.83-22S185.67,163.36,185.67,175.51Z"/></g></g></g></svg>